<svg xmlns="http://www.w3.org/2000/svg" viewBox="0 0 2358.62 386.31"><defs><style>.a{fill:#23272a;}.b{fill:#ff7550;}.c{fill:#cfff63;}.d{fill:#b6a6f6;}</style></defs><path class="a" d="M1197.09,164.9l38.72-100.19h17.81l38.22,100.19H1274.4l-9.9-27.46h-40.2L1214,164.9Zm32.53-42.05h29.93l-14.47-40.08h-.49Z"/><path class="a" d="M1392.27,164.9h-18.18l-49.72-74.34h-.5V164.9h-15.58V64.71h17.56l50.34,75.2h.49V64.71h15.59Z"/><path class="a" d="M1460.05,166.38a41.37,41.37,0,0,1-23.07-6.55,44.72,44.72,0,0,1-15.83-18.25q-5.76-11.69-5.75-26.77,0-15.34,6-27A45,45,0,0,1,1438,69.72a48.76,48.76,0,0,1,44-2.35,37.56,37.56,0,0,1,14.22,11.69,38.85,38.85,0,0,1,7,17.81h-17.44a20.47,20.47,0,0,0-7.54-13.48q-6.32-5.07-16-5.07a27.42,27.42,0,0,0-15.77,4.58A30.25,30.25,0,0,0,1436,95.7a45.63,45.63,0,0,0-3.77,19.23,45.91,45.91,0,0,0,3.83,19.36,32,32,0,0,0,10.58,13.11,26.45,26.45,0,0,0,15.64,4.76,29,29,0,0,0,12.62-2.66,22,22,0,0,0,8.78-7.3,17.73,17.73,0,0,0,3.22-10.33v-5.19h-26.35V113.07H1490q6.55,0,9.89,3.41t3.34,9.83V164.9h-15.46V151.66h-.49a23.6,23.6,0,0,1-10.21,10.7A34,34,0,0,1,1460.05,166.38Z"/><path class="a" d="M1593.75,164.9h-65.06V64.71h65.06V79.56h-48.36v26.09h45.27v14.6h-45.27v29.81h48.36Z"/><path class="a" d="M1634.19,164.9l-25.6-100.19h17.56l17.07,74.71h.5l19.91-74.71h16.08l20.9,74.71h.5l16.94-74.71h17.56L1710,164.9h-17.19l-21-76.19h-.49l-19.92,76.19Z"/><path class="a" d="M1732.65,164.9l38.71-100.19h17.81l38.22,100.19H1810l-9.9-27.46h-40.19l-10.27,27.46Zm32.52-42.05h29.94l-14.47-40.08h-.5Z"/><path class="a" d="M1927.82,164.9h-18.18l-49.72-74.34h-.5V164.9h-15.58V64.71h17.56l50.34,75.2h.5V64.71h15.58Z"/><path class="a" d="M1956.27,164.9V64.71h33q15.09,0,26.16,6.07a42.4,42.4,0,0,1,17.19,17.31q6.12,11.25,6.12,26.72t-6.12,26.59a42.71,42.71,0,0,1-17.25,17.38q-11.13,6.12-26.1,6.12ZM1973,150.3h16.33q10.64,0,17.87-4.51a29,29,0,0,0,11-12.43,42.77,42.77,0,0,0,3.77-18.55q0-16-8.41-25.73t-24.24-9.77H1973Z"/><path class="a" d="M2092,164.9h-16.57V79.56H2044V64.71h79.41V79.56H2092Z"/><path class="a" d="M2207.1,164.9H2142V64.71h65.06V79.56h-48.36v26.09H2204v14.6h-45.27v29.81h48.36Z"/><path class="a" d="M1200.19,313.9V213.71h33q15.09,0,26.16,6.07a42.4,42.4,0,0,1,17.19,17.31q6.12,11.25,6.12,26.72t-6.12,26.59a42.71,42.71,0,0,1-17.25,17.38q-11.13,6.12-26.1,6.12Zm16.69-14.6h16.33q10.63,0,17.87-4.51a29,29,0,0,0,11-12.43,42.77,42.77,0,0,0,3.77-18.55q0-16-8.41-25.73t-24.24-9.77h-16.33Z"/><path class="a" d="M1289.36,313.9l38.72-100.19h17.81l38.22,100.19h-17.44l-9.9-27.46h-40.2l-10.26,27.46Zm32.53-42h29.93l-14.47-40.08h-.49Z"/><path class="a" d="M1423.93,313.9h-16.57V228.56h-31.42V213.71h79.41v14.85h-31.42Z"/><path class="a" d="M1539.08,313.9H1474V213.71h65.06v14.85h-48.36v26.09H1536v14.6h-45.27v29.81h48.36Z"/><path class="a" d="M1646.19,313.9H1628l-49.72-74.34h-.49V313.9h-15.59V213.71h17.56l50.34,75.2h.5v-75.2h15.58Z"/><path class="a" d="M1662.64,313.9l38.72-100.19h17.81l38.21,100.19H1740l-9.9-27.46h-40.2l-10.26,27.46Zm32.53-42h29.93l-14.47-40.08h-.49Z"/><path class="a" d="M1857.82,313.9h-18.19l-49.72-74.34h-.49V313.9h-15.59V213.71h17.57l50.34,75.2h.49v-75.2h15.59Z"/><path class="a" d="M1874.26,313.9,1913,213.71h17.81L1969,313.9h-17.44l-9.9-27.46h-40.19l-10.27,27.46Zm32.53-42h29.94l-14.48-40.08h-.49Z"/><path class="a" d="M1985.46,313.9V213.71h16.69v85.35h47.75V313.9Z"/><path class="a" d="M2073.77,313.9V276.42l-34.26-62.71h18.92l23.87,45.4h.5l23.87-45.4h18.06l-34.26,62.47V313.9Z"/><path class="a" d="M2169.87,315.38a50.12,50.12,0,0,1-20.78-4,33.36,33.36,0,0,1-14-11.38,32.93,32.93,0,0,1-5.76-17.13h17.2q1.23,8.91,7.54,13.61t16.45,4.7q9.41,0,14.53-3.9t5.14-10.94a12.56,12.56,0,0,0-3.53-9.09q-3.52-3.64-11.19-5.38l-16.2-3.59q-13-3-19.61-9.77T2133,241.17a26.72,26.72,0,0,1,4.33-15.15,28.81,28.81,0,0,1,12.19-10.14,43.51,43.51,0,0,1,18.49-3.65,44.64,44.64,0,0,1,19,3.77,32.22,32.22,0,0,1,13,10.7,32.87,32.87,0,0,1,5.75,16.2h-17.31q-1.48-8.16-7-12.49t-14.23-4.33q-8.16,0-13,3.65a11.82,11.82,0,0,0-4.82,10,11.42,11.42,0,0,0,3.4,8.29c2.27,2.3,5.83,4,10.7,5.07l17.07,3.83q13,3,19.48,9.9t6.49,18.3q0,13.86-9.64,22.08T2169.87,315.38Z"/><path class="a" d="M2293.93,313.9h-65.06V213.71h65.06v14.85h-48.36v26.09h45.27v14.6h-45.27v29.81h48.36Z"/><rect class="b" x="838.99" y="64.52" width="269.24" height="249.33" rx="24.1"/><circle class="c" cx="199.06" cy="189.49" r="134.21"/><path class="a" d="M119.28,269.34l65.2-168.73h30l64.37,168.73H249.47L232.81,223.1h-67.7l-17.29,46.24Zm54.78-70.82h50.42L200.1,131h-.83Z"/><path class="a" d="M894.24,269.34l65.2-168.73h30l64.37,168.73h-29.37l-16.67-46.24h-67.7l-17.29,46.24ZM949,198.52h50.41L975.07,131h-.84Z"/><rect class="d" x="364.66" y="55.28" width="439.49" height="267.87" rx="133.93"/><path class="a" d="M521.65,268V99.26h55.62q25.41,0,44.06,10.21a71.48,71.48,0,0,1,29,29.16q10.31,19,10.31,45,0,25.83-10.31,44.79a72,72,0,0,1-29.06,29.27Q602.48,268,577.27,268Zm28.12-24.58h27.5q17.91,0,30.1-7.61a48.88,48.88,0,0,0,18.54-20.93q6.36-13.33,6.36-31.25,0-26.88-14.17-43.33t-40.83-16.46h-27.5Z"/></svg>