<svg xmlns="http://www.w3.org/2000/svg" viewBox="0 0 1170.33 673.28"><defs><style>.a{fill:#ff7550;}.b{fill:#cfff63;}.c{fill:#23272a;}.d{fill:#b6a6f6;}</style></defs><path class="a" d="M1083.25,313.15h-221a24.11,24.11,0,0,1-24.1-24.1V87.85a24.11,24.11,0,0,1,24.1-24.1h221a24.11,24.11,0,0,1,24.1,24.1V289A24.13,24.13,0,0,1,1083.25,313.15Z"/><path class="b" d="M198.15,323A134.2,134.2,0,1,0,64,188.75,134.2,134.2,0,0,0,198.15,323Z"/><path class="c" d="M118.35,273.65,183.55,105h30L278,273.65h-29.4L232,227.35h-67.7L147,273.65Zm54.8-70.9h50.4l-24.4-67.5h-.8Z"/><path class="c" d="M893.35,273.65,958.55,105h30l64.4,168.7h-29.4l-16.7-46.2h-67.7l-17.3,46.2Zm54.8-70.9h50.4l-24.4-67.5h-.8Z"/><path class="d" d="M669.35,322.45H497.65a134,134,0,0,1,0-267.9h171.6a134,134,0,0,1,.1,267.9Z"/><path class="c" d="M520.75,273.55V104.85h55.6q25.35,0,44.1,10.2a71.55,71.55,0,0,1,29,29.2c6.9,12.6,10.3,27.6,10.3,45,0,17.2-3.4,32.2-10.3,44.8a72.64,72.64,0,0,1-29.1,29.3c-12.5,6.9-27.2,10.3-44,10.3h-55.6Zm28.1-24.6h27.5c11.9,0,22-2.5,30.1-7.6a48.76,48.76,0,0,0,18.5-20.9c4.2-8.9,6.4-19.3,6.4-31.2,0-17.9-4.7-32.4-14.2-43.3s-23.1-16.5-40.8-16.5h-27.5Z"/><path class="c" d="M90.82,476.39l34.56-89.45h15.91l34.12,89.45H159.84L151,451.87H115.12L106,476.39Zm29-37.55h26.73l-12.92-35.78h-.44Z"/><path class="c" d="M265.08,476.39H248.84L204.45,410H204v66.37H190.1V386.94h15.68l44.94,67.14h.44V386.94h13.92Z"/><path class="c" d="M325.59,477.71a37,37,0,0,1-20.6-5.85,39.93,39.93,0,0,1-14.13-16.29,53.51,53.51,0,0,1-5.14-23.91q0-13.68,5.36-24.07a40.11,40.11,0,0,1,14.8-16.18,40.64,40.64,0,0,1,21.7-5.8,40.23,40.23,0,0,1,17.55,3.7,33.45,33.45,0,0,1,12.7,10.44,34.65,34.65,0,0,1,6.3,15.9H348.56a18.29,18.29,0,0,0-6.74-12q-5.62-4.51-14.24-4.52a24.47,24.47,0,0,0-14.08,4.08,27.13,27.13,0,0,0-9.39,11.43,45.36,45.36,0,0,0,.06,34.46,28.47,28.47,0,0,0,9.44,11.7,23.55,23.55,0,0,0,14,4.25,25.84,25.84,0,0,0,11.26-2.37,19.56,19.56,0,0,0,7.84-6.52,15.83,15.83,0,0,0,2.87-9.22v-4.64H326V430.12h26.28q5.85,0,8.84,3c2,2,3,5,3,8.78v34.46H350.32V464.57h-.44a21,21,0,0,1-9.11,9.55A30.38,30.38,0,0,1,325.59,477.71Z"/><path class="c" d="M445,476.39H386.88V386.94H445v13.25H401.78v23.3H442.2v13H401.78v26.61H445Z"/><path class="c" d="M481.07,476.39l-22.86-89.45h15.68l15.24,66.7h.44l17.78-66.7h14.36l18.66,66.7h.44l15.13-66.7h15.68l-22.86,89.45H533.41l-18.77-68h-.44l-17.78,68Z"/><path class="c" d="M569,476.39l34.56-89.45h15.91l34.12,89.45H638l-8.84-24.52H593.26l-9.16,24.52Zm29-37.55h26.73l-12.92-35.78h-.45Z"/><path class="c" d="M743.23,476.39H727L682.6,410h-.44v66.37H668.24V386.94h15.69l44.94,67.14h.44V386.94h13.92Z"/><path class="c" d="M768.62,476.39V386.94h29.49q13.47,0,23.35,5.41a37.85,37.85,0,0,1,15.35,15.46q5.48,10.05,5.47,23.85t-5.47,23.74a38.11,38.11,0,0,1-15.4,15.52q-9.95,5.46-23.3,5.47Zm14.91-13h14.58q9.5,0,15.95-4a26,26,0,0,0,9.83-11.1,38.05,38.05,0,0,0,3.37-16.57q0-14.24-7.51-23T798.11,400H783.53Z"/><path class="c" d="M889.76,476.39H875v-76.2H846.92V386.94h70.89v13.25h-28Z"/><path class="c" d="M992.57,476.39H934.49V386.94h58.08v13.25H949.39v23.3h40.42v13H949.39v26.61h43.18Z"/><path class="c" d="M99.53,608.62V519.18H129q13.47,0,23.35,5.41a37.85,37.85,0,0,1,15.35,15.46q5.47,10.05,5.47,23.85t-5.47,23.74a38.17,38.17,0,0,1-15.4,15.52q-9.94,5.46-23.3,5.46Zm14.91-13H129q9.49,0,15.95-4a25.79,25.79,0,0,0,9.83-11.1,38,38,0,0,0,3.37-16.56q0-14.25-7.51-23T129,532.21H114.44Z"/><path class="c" d="M179.15,608.62l34.57-89.44h15.9l34.12,89.44H248.17l-8.84-24.51H203.45l-9.17,24.51Zm29-37.54h26.73L222,535.3h-.44Z"/><path class="c" d="M299.3,608.62H284.5V532.43H256.45V519.18h70.9v13.25H299.3Z"/><path class="c" d="M402.11,608.62H344V519.18h58.09v13.25H358.93v23.3h40.42v13H358.93v26.61h43.18Z"/><path class="c" d="M497.74,608.62H481.5l-44.39-66.36h-.44v66.36H422.75V519.18h15.69l44.94,67.14h.44V519.18h13.92Z"/><path class="c" d="M512.42,608.62,547,519.18h15.91L597,608.62H581.44l-8.84-24.51H536.71l-9.16,24.51Zm29-37.54h26.73L555.27,535.3h-.45Z"/><path class="c" d="M686.68,608.62H670.44l-44.39-66.36h-.44v66.36H611.7V519.18h15.68l44.94,67.14h.44V519.18h13.92Z"/><path class="c" d="M701.36,608.62l34.56-89.44h15.91L786,608.62H770.38l-8.84-24.51H725.66l-9.17,24.51Zm29-37.54h26.73L744.21,535.3h-.44Z"/><path class="c" d="M800.64,608.62V519.18h14.9v76.19h42.63v13.25Z"/><path class="c" d="M879.48,608.62V575.16l-30.59-56h16.9L887.1,559.7h.44l21.31-40.52H925l-30.59,55.76v33.68Z"/><path class="c" d="M965.28,610a44.78,44.78,0,0,1-18.55-3.59A29.82,29.82,0,0,1,934.2,596.2a29.41,29.41,0,0,1-5.14-15.29h15.35q1.11,8,6.74,12.14t14.69,4.2q8.38,0,13-3.48a11.55,11.55,0,0,0,4.58-9.77,11.21,11.21,0,0,0-3.14-8.12q-3.15-3.25-10-4.8l-14.46-3.2q-11.6-2.65-17.51-8.73t-5.9-15.46a23.81,23.81,0,0,1,3.86-13.53,25.74,25.74,0,0,1,10.88-9,38.87,38.87,0,0,1,16.51-3.26,39.71,39.71,0,0,1,17,3.37,28.78,28.78,0,0,1,11.59,9.55,29.42,29.42,0,0,1,5.14,14.47H981.85c-.89-4.86-3-8.58-6.3-11.16s-7.54-3.86-12.7-3.86q-7.27,0-11.59,3.26a10.54,10.54,0,0,0-4.31,8.89,10.17,10.17,0,0,0,3,7.4q3,3.09,9.55,4.52l15.24,3.43q11.6,2.64,17.39,8.83t5.8,16.34q0,12.38-8.61,19.72T965.28,610Z"/><path class="c" d="M1076,608.62H1018V519.18H1076v13.25h-43.17v23.3h40.41v13h-40.41v26.61H1076Z"/></svg>