<svg xmlns="http://www.w3.org/2000/svg" viewBox="0 0 4117.62 386.31"><defs><style>.a{fill:#23272a;}.b{fill:#ff7550;}.c{fill:#cfff63;}.d{fill:#b6a6f6;}</style></defs><path class="a" d="M1224.15,164.9l38.71-100.18h17.81l38.22,100.18h-17.44l-9.89-27.46h-40.2l-10.27,27.46Zm32.53-42.05h29.93l-14.47-40.08h-.5Z"/><path class="a" d="M1419.32,164.9h-18.18l-49.72-74.34h-.5V164.9h-15.58V64.72h17.56l50.34,75.2h.5V64.72h15.58Z"/><path class="a" d="M1487.1,166.38a41.37,41.37,0,0,1-23.07-6.55,44.76,44.76,0,0,1-15.83-18.24q-5.75-11.7-5.75-26.78,0-15.34,6-27A44.93,44.93,0,0,1,1465,69.72a45.58,45.58,0,0,1,24.31-6.49A45,45,0,0,1,1509,67.37a37.66,37.66,0,0,1,14.23,11.69,38.73,38.73,0,0,1,7,17.81h-17.43a20.48,20.48,0,0,0-7.55-13.48q-6.3-5.07-16-5.07a27.4,27.4,0,0,0-15.77,4.58A30.33,30.33,0,0,0,1463,95.7a45.79,45.79,0,0,0-3.77,19.23,46.07,46.07,0,0,0,3.83,19.36,32,32,0,0,0,10.58,13.11,26.45,26.45,0,0,0,15.65,4.76,28.92,28.92,0,0,0,12.61-2.66,21.81,21.81,0,0,0,8.78-7.3,17.65,17.65,0,0,0,3.22-10.32v-5.2h-26.35v-13.6H1517q6.56,0,9.9,3.4t3.33,9.83V164.9H1514.8V151.67h-.49a23.55,23.55,0,0,1-10.2,10.69A34.08,34.08,0,0,1,1487.1,166.38Z"/><path class="a" d="M1620.8,164.9h-65.06V64.72h65.06V79.56h-48.36v26.09h45.27v14.6h-45.27v29.81h48.36Z"/><path class="a" d="M1661.24,164.9l-25.6-100.18h17.57l17.06,74.7h.5l19.91-74.7h16.08l20.9,74.7h.5l16.94-74.7h17.57L1737.06,164.9h-17.19l-21-76.19h-.5l-19.91,76.19Z"/><path class="a" d="M1759.7,164.9l38.71-100.18h17.81l38.22,100.18H1837l-9.89-27.46h-40.2l-10.27,27.46Zm32.53-42.05h29.93l-14.47-40.08h-.5Z"/><path class="a" d="M1954.87,164.9h-18.18L1887,90.56h-.49V164.9h-15.59V64.72h17.56l50.34,75.2h.5V64.72h15.58Z"/><path class="a" d="M1983.32,164.9V64.72h33q15.09,0,26.16,6.06a42.4,42.4,0,0,1,17.19,17.31q6.14,11.26,6.13,26.72t-6.13,26.59a42.71,42.71,0,0,1-17.25,17.38q-11.13,6.12-26.1,6.12Zm16.7-14.59h16.32q10.64,0,17.88-4.52a29,29,0,0,0,11-12.43,42.63,42.63,0,0,0,3.78-18.55q0-16-8.41-25.73t-24.25-9.77H2000Z"/><path class="a" d="M2119,164.9h-16.57V79.56H2071V64.72h79.41V79.56H2119Z"/><path class="a" d="M2234.15,164.9H2169.1V64.72h65.05V79.56h-48.36v26.09h45.27v14.6h-45.27v29.81h48.36Z"/><path class="a" d="M1227.24,313.9V213.72h33q15.09,0,26.16,6.06a42.4,42.4,0,0,1,17.19,17.31q6.14,11.26,6.13,26.72t-6.13,26.59a42.71,42.71,0,0,1-17.25,17.38q-11.13,6.12-26.1,6.12Zm16.7-14.59h16.32q10.63,0,17.88-4.52a29,29,0,0,0,11-12.43,42.63,42.63,0,0,0,3.78-18.55q0-16-8.41-25.73t-24.25-9.77h-16.32Z"/><path class="a" d="M1316.42,313.9l38.71-100.18h17.81l38.22,100.18h-17.44l-9.9-27.46h-40.19l-10.27,27.46Zm32.53-42h29.93l-14.47-40.08h-.5Z"/><path class="a" d="M1451,313.9h-16.58V228.56H1403V213.72h79.4v14.84H1451Z"/><path class="a" d="M1566.14,313.9h-65.06V213.72h65.06v14.84h-48.36v26.09H1563v14.6h-45.26v29.81h48.36Z"/><path class="a" d="M1673.25,313.9h-18.19l-49.72-74.34h-.49V313.9h-15.59V213.72h17.57l50.34,75.2h.49v-75.2h15.59Z"/><path class="a" d="M1689.7,313.9l38.71-100.18h17.81l38.22,100.18H1767l-9.9-27.46h-40.19l-10.27,27.46Zm32.52-42h29.94l-14.48-40.08h-.49Z"/><path class="a" d="M1884.87,313.9h-18.18L1817,239.56h-.5V313.9h-15.58V213.72h17.56l50.34,75.2h.5v-75.2h15.58Z"/><path class="a" d="M1901.32,313.9,1940,213.72h17.81l38.22,100.18h-17.44l-9.89-27.46h-40.2l-10.27,27.46Zm32.53-42h29.93l-14.47-40.08h-.5Z"/><path class="a" d="M2012.51,313.9V213.72h16.7v85.34H2077V313.9Z"/><path class="a" d="M2100.82,313.9V276.42l-34.26-62.7h18.92l23.88,45.39h.49l23.87-45.39h18.06l-34.26,62.46V313.9Z"/><path class="a" d="M2196.93,315.38a50.06,50.06,0,0,1-20.78-4,33.33,33.33,0,0,1-14-11.38,32.92,32.92,0,0,1-5.75-17.13h17.19q1.23,8.91,7.54,13.61t16.45,4.7q9.4,0,14.54-3.9t5.13-10.94a12.6,12.6,0,0,0-3.52-9.09q-3.53-3.64-11.2-5.38l-16.2-3.59q-13-3-19.61-9.77t-6.61-17.32A26.65,26.65,0,0,1,2164.4,226a28.72,28.72,0,0,1,12.18-10.14,43.54,43.54,0,0,1,18.49-3.65,44.69,44.69,0,0,1,19,3.77,32.19,32.19,0,0,1,13,10.7,32.78,32.78,0,0,1,5.75,16.2h-17.31q-1.49-8.16-7.05-12.49t-14.23-4.33q-8.16,0-13,3.65a11.82,11.82,0,0,0-4.83,10,11.43,11.43,0,0,0,3.41,8.29c2.26,2.3,5.83,4,10.69,5.07l17.07,3.83q13,3,19.48,9.9t6.5,18.3q0,13.86-9.65,22.08T2196.93,315.38Z"/><path class="a" d="M2321,313.9h-65.06V213.72H2321v14.84h-48.36v26.09h45.27v14.6h-45.27v29.81H2321Z"/><path class="a" d="M2491.57,165.9h-16.7V65.72h63.82V80.56h-47.12V108h43.91v14.84h-43.91Z"/><path class="a" d="M2596.33,167.38a46.7,46.7,0,0,1-20.72-4.32,31.55,31.55,0,0,1-13.73-12.81q-4.87-8.46-4.88-20.84V65.72h16.94v62q0,11.26,5.82,17.56t17.19,6.31q11.51,0,17.13-6.68t5.63-17.06V65.72h16.69v63.94q0,11.75-4.82,20.22a32.08,32.08,0,0,1-13.79,13Q2608.82,167.39,2596.33,167.38ZM2581.24,56.56a9.2,9.2,0,0,1-6.74-2.78,9.26,9.26,0,0,1,0-13.23,9.17,9.17,0,0,1,6.74-2.79,9.36,9.36,0,0,1,6.62,16A9.06,9.06,0,0,1,2581.24,56.56Zm30.92,0a9.35,9.35,0,0,1-6.61-16,9,9,0,0,1,6.61-2.79,9.16,9.16,0,0,1,6.74,2.79,9.24,9.24,0,0,1,0,13.23A9.19,9.19,0,0,1,2612.16,56.56Z"/><path class="a" d="M2663.61,165.9V65.72H2708a39,39,0,0,1,16.32,3.21,25.3,25.3,0,0,1,11,9.34,26.63,26.63,0,0,1,4,14.78,25.9,25.9,0,0,1-3.09,12.68,20.41,20.41,0,0,1-10,8.72v.49q6.43,0,9.77,3.4t3.34,9.84V165.9h-16.57V126.2h-42.43v39.7Zm16.7-54.3h26.35q7.29,0,11.75-4.08t4.45-11.5q0-7.55-4.45-11.57t-11.75-4h-26.35Z"/><path class="a" d="M2805,165.9V65.72h33q15.09,0,26.16,6.06a42.4,42.4,0,0,1,17.19,17.31q6.12,11.26,6.12,26.72t-6.12,26.59a42.71,42.71,0,0,1-17.25,17.38Q2853,165.9,2838,165.9Zm16.7-14.59H2838q10.63,0,17.87-4.52a29.09,29.09,0,0,0,11-12.43,42.77,42.77,0,0,0,3.77-18.55q0-16-8.41-25.73T2838,80.31h-16.33Z"/><path class="a" d="M2910,165.9V65.72h16.7V165.9Z"/><path class="a" d="M3020.32,165.9h-65.06V65.72h65.06V80.56H2972v26.09h45.27v14.6H2972v29.81h48.36Z"/><path class="a" d="M3123.47,167.38a43.95,43.95,0,0,1-40.32-24.3q-6.06-11.57-6.06-27.27t6.06-27.4a44.35,44.35,0,0,1,16.51-17.87,45.12,45.12,0,0,1,23.81-6.31,45.68,45.68,0,0,1,23.93,6.25,43.53,43.53,0,0,1,16.45,17.81q6,11.56,6,27.52,0,15.7-6.06,27.33a44.5,44.5,0,0,1-16.45,17.94A45.12,45.12,0,0,1,3123.47,167.38Zm0-15a26.86,26.86,0,0,0,15.65-4.58,29.82,29.82,0,0,0,10.26-12.8,47.09,47.09,0,0,0,3.65-19.23,47.5,47.5,0,0,0-3.65-19.36,29.4,29.4,0,0,0-10.26-12.74,29.18,29.18,0,0,0-31.17,0,29.83,29.83,0,0,0-10.33,12.74,46.83,46.83,0,0,0-3.71,19.36,46.43,46.43,0,0,0,3.71,19.23,30.25,30.25,0,0,0,10.33,12.8A26.6,26.6,0,0,0,3123.47,152.42ZM3108,56.56a9.19,9.19,0,0,1-6.74-2.78,9.26,9.26,0,0,1,0-13.23,9.16,9.16,0,0,1,6.74-2.79,9.36,9.36,0,0,1,6.62,16A9.08,9.08,0,0,1,3108,56.56Zm30.92,0a9.36,9.36,0,0,1-6.62-16,9,9,0,0,1,6.62-2.79,9.16,9.16,0,0,1,6.74,2.79,9.26,9.26,0,0,1,0,13.23A9.19,9.19,0,0,1,3138.93,56.56Z"/><path class="a" d="M3209.68,165.9H3193V65.72h63.82V80.56h-47.12V108h43.91v14.84h-43.91Z"/><path class="a" d="M3292.92,165.9h-16.7V65.72H3340V80.56h-47.12V108h43.91v14.84h-43.91Z"/><path class="a" d="M3424.52,165.9h-65.06V65.72h65.06V80.56h-48.36v26.09h45.27v14.6h-45.27v29.81h48.36Z"/><path class="a" d="M3531.63,165.9h-18.18l-49.73-74.34h-.49V165.9h-15.58V65.72h17.56l50.34,75.2h.49V65.72h15.59Z"/><path class="a" d="M3598.29,165.9h-16.57V80.56H3550.3V65.72h79.41V80.56h-31.42Z"/><path class="a" d="M3648.38,165.9V65.72h16.7v85.34h47.74V165.9Z"/><path class="a" d="M3732.37,165.9V65.72h16.69V165.9Z"/><path class="a" d="M3818.57,167.63a44.87,44.87,0,0,1-24.18-6.49A43.8,43.8,0,0,1,3778.13,143q-5.82-11.7-5.81-27t5.81-27.09a43.88,43.88,0,0,1,16.26-18.12,48.26,48.26,0,0,1,43.73-2.35,37.56,37.56,0,0,1,14.22,11.69,38.85,38.85,0,0,1,7,17.81H3842a20.39,20.39,0,0,0-7.61-13.48q-6.36-5.07-15.77-5.07A26.9,26.9,0,0,0,3803,83.9a29.26,29.26,0,0,0-10.27,12.74,47.68,47.68,0,0,0-3.58,19.29,47.78,47.78,0,0,0,3.58,19.23A29.24,29.24,0,0,0,3803,148a26.89,26.89,0,0,0,15.58,4.57q9.41,0,15.77-5.13A20.53,20.53,0,0,0,3842,134h17.44a39.15,39.15,0,0,1-7,17.75,37.25,37.25,0,0,1-14.22,11.75A44.79,44.79,0,0,1,3818.57,167.63Z"/><path class="a" d="M3878.93,165.9V65.72h16.7v40.81h47.49V65.72h16.7V165.9h-16.7V121.37h-47.49V165.9Z"/><path class="a" d="M4053.2,165.9h-65.06V65.72h65.06V80.56h-48.36v26.09h45.27v14.6h-45.27v29.81h48.36Z"/><path class="a" d="M2509.63,314.9l-37.11-100.18h18.55l28.82,81.38h.5L2549,214.72h17.93l-37.1,100.18Z"/><path class="a" d="M2649.14,314.9h-65.06V214.72h65.06v14.84h-48.36v26.09h45.27v14.6h-45.27v29.81h48.36Z"/><path class="a" d="M2672.27,314.9V214.72h44.4a39,39,0,0,1,16.33,3.21,25.3,25.3,0,0,1,11,9.34,26.63,26.63,0,0,1,4,14.78,25.91,25.91,0,0,1-3.1,12.68,20.41,20.41,0,0,1-10,8.72v.49q6.43,0,9.78,3.4t3.34,9.84V314.9h-16.58V275.2H2689v39.7Zm16.7-54.3h26.34q7.3,0,11.75-4.08t4.46-11.5q0-7.54-4.46-11.57t-11.75-4H2689Z"/><path class="a" d="M2788.29,314.9l-25.61-100.18h17.57l17.07,74.7h.49l19.91-74.7h16.08l20.91,74.7h.49l17-74.7h17.56l-25.6,100.18h-17.2l-21-76.19h-.5l-19.91,76.19Z"/><path class="a" d="M2886.74,314.9l38.71-100.18h17.82l38.21,100.18H2964l-9.89-27.46H2914l-10.26,27.46Zm32.53-42h29.93l-14.47-40.08h-.49Z"/><path class="a" d="M2997.93,314.9V214.72h16.7v85.34h47.74V314.9Z"/><path class="a" d="M3101.46,314.9h-16.58V229.56h-31.41V214.72h79.4v14.84h-31.41Z"/><path class="a" d="M3189.77,316.38a46.7,46.7,0,0,1-20.72-4.32,31.55,31.55,0,0,1-13.73-12.81q-4.89-8.46-4.88-20.84V214.72h16.94v62q0,11.26,5.82,17.56t17.19,6.31q11.51,0,17.13-6.68t5.63-17.06V214.72h16.69v63.94q0,11.74-4.82,20.22a32.08,32.08,0,0,1-13.79,13Q3202.26,316.39,3189.77,316.38Z"/><path class="a" d="M3341,314.9h-18.18l-49.72-74.34h-.49V314.9h-15.59V214.72h17.57l50.34,75.2h.49v-75.2H3341Z"/><path class="a" d="M3408.81,316.38a41.31,41.31,0,0,1-23.06-6.55,44.78,44.78,0,0,1-15.84-18.24q-5.74-11.7-5.75-26.78,0-15.34,6-27a44.93,44.93,0,0,1,16.57-18.12,45.61,45.61,0,0,1,24.31-6.49,45,45,0,0,1,19.66,4.14,37.51,37.51,0,0,1,14.23,11.69,38.85,38.85,0,0,1,7.05,17.81h-17.44a20.48,20.48,0,0,0-7.55-13.48q-6.3-5.07-15.95-5.07a27.4,27.4,0,0,0-15.77,4.58,30.24,30.24,0,0,0-10.51,12.8,50.76,50.76,0,0,0,.06,38.59,31.94,31.94,0,0,0,10.57,13.11,26.48,26.48,0,0,0,15.65,4.76,28.92,28.92,0,0,0,12.61-2.66,21.85,21.85,0,0,0,8.79-7.3,17.72,17.72,0,0,0,3.21-10.32v-5.2h-26.34v-13.6h29.43q6.56,0,9.9,3.4t3.34,9.83V314.9h-15.46V301.67h-.5a23.55,23.55,0,0,1-10.2,10.69A34,34,0,0,1,3408.81,316.38Z"/><rect class="b" x="838.99" y="64.52" width="269.24" height="249.33" rx="24.1"/><circle class="c" cx="199.06" cy="189.49" r="134.21"/><path class="a" d="M119.28,269.34l65.2-168.73h30l64.37,168.73H249.47L232.81,223.1h-67.7l-17.29,46.24Zm54.78-70.82h50.42L200.1,131h-.83Z"/><path class="a" d="M894.24,269.34l65.2-168.73h30l64.37,168.73h-29.37l-16.67-46.24h-67.7l-17.29,46.24ZM949,198.52h50.41L975.07,131h-.84Z"/><rect class="d" x="364.66" y="55.28" width="439.49" height="267.87" rx="133.93"/><path class="a" d="M521.65,268V99.26h55.62q25.41,0,44.06,10.21a71.48,71.48,0,0,1,29,29.16q10.31,19,10.31,45,0,25.83-10.31,44.79a72,72,0,0,1-29.06,29.27Q602.48,268,577.27,268Zm28.12-24.58h27.5q17.91,0,30.1-7.61a48.88,48.88,0,0,0,18.54-20.93q6.36-13.33,6.36-31.25,0-26.88-14.17-43.33t-40.83-16.46h-27.5Z"/><rect class="a" x="2392.14" y="65" width="8" height="248.33"/></svg>