<svg xmlns="http://www.w3.org/2000/svg" viewBox="0 0 1881.62 387.79"><defs><style>.a{fill:#23272a;}.b{fill:#ff7550;}.c{fill:#cfff63;}.d{fill:#b6a6f6;}</style></defs><path class="a" d="M1168.34,109.75l17.51-45.32h8.06l17.29,45.32h-7.89l-4.48-12.42h-18.18L1176,109.75Zm14.71-19h13.54l-6.54-18.13h-.23Z"/><path class="a" d="M1256.63,109.75h-8.23l-22.49-33.62h-.22v33.62h-7V64.43h7.94l22.77,34h.23v-34h7.05Z"/><path class="a" d="M1287.29,110.42a18.69,18.69,0,0,1-10.44-3,20.34,20.34,0,0,1-7.16-8.25,27.2,27.2,0,0,1-2.6-12.12,26.19,26.19,0,0,1,2.71-12.19,20.32,20.32,0,0,1,7.5-8.2,22,22,0,0,1,19.89-1.06,16.92,16.92,0,0,1,6.43,5.28,17.52,17.52,0,0,1,3.19,8.06h-7.88a9.3,9.3,0,0,0-3.42-6.1,11.15,11.15,0,0,0-7.22-2.29,12.38,12.38,0,0,0-7.13,2.07,13.67,13.67,0,0,0-4.75,5.79,20.65,20.65,0,0,0-1.71,8.7,20.91,20.91,0,0,0,1.73,8.76,14.52,14.52,0,0,0,4.79,5.93,12,12,0,0,0,7.07,2.15,13.11,13.11,0,0,0,5.71-1.2,9.87,9.87,0,0,0,4-3.3,8,8,0,0,0,1.46-4.68V92.46h-11.92V86.31h13.32a6,6,0,0,1,4.47,1.54,6.09,6.09,0,0,1,1.51,4.45v17.45h-7v-6h-.22a10.76,10.76,0,0,1-4.62,4.84A15.4,15.4,0,0,1,1287.29,110.42Z"/><path class="a" d="M1347.77,109.75h-29.43V64.43h29.43v6.72h-21.88V83h20.48v6.61h-20.48V103h21.88Z"/><path class="a" d="M1366.06,109.75l-11.58-45.32h8l7.72,33.8h.22l9-33.8h7.27l9.46,33.8h.22l7.67-33.8h7.94l-11.58,45.32h-7.78l-9.51-34.46h-.22l-9,34.46Z"/><path class="a" d="M1410.6,109.75l17.51-45.32h8.06l17.29,45.32h-7.89l-4.48-12.42h-18.18l-4.64,12.42Zm14.71-19h13.54l-6.54-18.13h-.23Z"/><path class="a" d="M1498.89,109.75h-8.23l-22.49-33.62H1468v33.62h-7V64.43h7.94l22.78,34h.22v-34h7.05Z"/><path class="a" d="M1511.76,109.75V64.43h14.94a24.24,24.24,0,0,1,11.83,2.75,19.12,19.12,0,0,1,7.78,7.83,25,25,0,0,1,2.77,12.08,24.86,24.86,0,0,1-2.77,12,19.26,19.26,0,0,1-7.81,7.86,24.07,24.07,0,0,1-11.8,2.77Zm7.55-6.6h7.39a15,15,0,0,0,8.08-2,13.19,13.19,0,0,0,5-5.62,19.32,19.32,0,0,0,1.71-8.4q0-7.22-3.81-11.63t-11-4.42h-7.39Z"/><path class="a" d="M1573.13,109.75h-7.49V71.15h-14.21V64.43h35.92v6.72h-14.22Z"/><path class="a" d="M1625.22,109.75h-29.43V64.43h29.43v6.72h-21.87V83h20.48v6.61h-20.48V103h21.87Z"/><path class="a" d="M1173.77,178.75V133.43h14.93a24.28,24.28,0,0,1,11.84,2.75,19,19,0,0,1,7.77,7.83,27.62,27.62,0,0,1,0,24.11,19.18,19.18,0,0,1-7.8,7.86,24.08,24.08,0,0,1-11.81,2.77Zm7.55-6.6h7.38a15,15,0,0,0,8.09-2,13.19,13.19,0,0,0,5-5.62,19.32,19.32,0,0,0,1.71-8.4q0-7.22-3.81-11.63t-11-4.42h-7.38Z"/><path class="a" d="M1214.11,178.75l17.51-45.32h8.05L1257,178.75h-7.89l-4.47-12.42h-18.19l-4.64,12.42Zm14.71-19h13.54l-6.55-18.13h-.22Z"/><path class="a" d="M1275,178.75h-7.5v-38.6h-14.21v-6.72h35.92v6.72H1275Z"/><path class="a" d="M1327.07,178.75h-29.43V133.43h29.43v6.72h-21.88V152h20.48v6.61h-20.48V172h21.88Z"/><path class="a" d="M1375.52,178.75h-8.22l-22.5-33.62h-.22v33.62h-7V133.43h8l22.77,34h.22v-34h7Z"/><path class="a" d="M1383,178.75l17.51-45.32h8.06l17.29,45.32h-7.89l-4.48-12.42h-18.18l-4.64,12.42Zm14.72-19h13.54l-6.55-18.13h-.22Z"/><path class="a" d="M1471.25,178.75H1463l-22.5-33.62h-.22v33.62h-7V133.43h8l22.77,34h.22v-34h7Z"/><path class="a" d="M1478.69,178.75l17.51-45.32h8.06l17.29,45.32h-7.89l-4.48-12.42H1491l-4.64,12.42Zm14.72-19H1507l-6.55-18.13h-.22Z"/><path class="a" d="M1529,178.75V133.43h7.55V172h21.6v6.71Z"/><path class="a" d="M1568.94,178.75V161.8l-15.5-28.37H1562L1572.8,154h.22l10.8-20.54H1592l-15.5,28.26v17.06Z"/><path class="a" d="M1612.41,179.42a22.72,22.72,0,0,1-9.4-1.81,15.24,15.24,0,0,1-6.35-5.15,14.92,14.92,0,0,1-2.6-7.75h7.78a8.77,8.77,0,0,0,3.41,6.15,12.11,12.11,0,0,0,7.44,2.13,10.73,10.73,0,0,0,6.58-1.76,5.89,5.89,0,0,0,2.32-4.95,5.68,5.68,0,0,0-1.6-4.12,9.94,9.94,0,0,0-5.06-2.43l-7.33-1.62q-5.88-1.35-8.87-4.42a10.79,10.79,0,0,1-3-7.84,12,12,0,0,1,2-6.85,13,13,0,0,1,5.51-4.59,19.67,19.67,0,0,1,8.36-1.65,20.13,20.13,0,0,1,8.59,1.71,14.64,14.64,0,0,1,5.88,4.84,14.88,14.88,0,0,1,2.6,7.33h-7.84a8.83,8.83,0,0,0-3.18-5.65,10.17,10.17,0,0,0-6.44-2,9.49,9.49,0,0,0-5.87,1.65,5.33,5.33,0,0,0-2.19,4.5,5.17,5.17,0,0,0,1.54,3.75,9.57,9.57,0,0,0,4.84,2.3l7.72,1.73q5.88,1.35,8.82,4.48a11.65,11.65,0,0,1,2.93,8.28,12.45,12.45,0,0,1-4.36,10Q1620.25,179.42,1612.41,179.42Z"/><path class="a" d="M1668.53,178.75H1639.1V133.43h29.43v6.72h-21.88V152h20.48v6.61h-20.48V172h21.88Z"/><path class="a" d="M1704.17,178.75h-7.55V133.43h28.87v6.72h-21.32v12.42H1724v6.71h-19.86Z"/><path class="a" d="M1751.56,179.42a21.13,21.13,0,0,1-9.37-1.95,14.25,14.25,0,0,1-6.21-5.79,18.56,18.56,0,0,1-2.21-9.43V133.43h7.66v28q0,5.1,2.63,7.95c1.75,1.9,4.35,2.85,7.78,2.85s6.05-1,7.75-3a11.6,11.6,0,0,0,2.54-7.72V133.43h7.56v28.93a18.17,18.17,0,0,1-2.19,9.15,14.49,14.49,0,0,1-6.23,5.87A21.41,21.41,0,0,1,1751.56,179.42Zm-6.83-50.13a4.16,4.16,0,0,1-3-1.26,4.18,4.18,0,0,1,0-6,4.16,4.16,0,0,1,3-1.26A4.29,4.29,0,0,1,1749,125a4,4,0,0,1-1.25,3A4.1,4.1,0,0,1,1744.73,129.29Zm14,0a4.25,4.25,0,0,1,0-8.5,4.16,4.16,0,0,1,3,1.26,4.18,4.18,0,0,1,0,6A4.16,4.16,0,0,1,1758.72,129.29Z"/><path class="a" d="M1782,178.75V133.43h20.08a17.66,17.66,0,0,1,7.39,1.46,11.52,11.52,0,0,1,5,4.22,12.11,12.11,0,0,1,1.79,6.69,11.72,11.72,0,0,1-1.4,5.73,9.29,9.29,0,0,1-4.53,3.95v.22a5.93,5.93,0,0,1,4.42,1.54,6.13,6.13,0,0,1,1.51,4.45v17.06h-7.5v-18h-19.19v18Zm7.55-24.56h11.92a7.5,7.5,0,0,0,5.31-1.85,7.74,7.74,0,0,0,0-10.43,7.62,7.62,0,0,0-5.31-1.82h-11.92Z"/><path class="a" d="M1172.42,247.75V202.43h14.94a24.28,24.28,0,0,1,11.84,2.75A19.09,19.09,0,0,1,1207,213a27.62,27.62,0,0,1,0,24.11,19.24,19.24,0,0,1-7.8,7.86,24.11,24.11,0,0,1-11.81,2.77Zm7.56-6.6h7.38a15,15,0,0,0,8.09-2,13.19,13.19,0,0,0,5-5.62,19.46,19.46,0,0,0,1.7-8.4q0-7.22-3.8-11.63t-11-4.42H1180Z"/><path class="a" d="M1219.92,247.75V202.43h7.56v45.32Z"/><path class="a" d="M1269.83,247.75H1240.4V202.43h29.43v6.72H1248V221h20.48v6.61H1248V241h21.88Z"/><path class="a" d="M1316.49,248.42a19.88,19.88,0,0,1-18.24-11,29.27,29.27,0,0,1,0-24.73,20.08,20.08,0,0,1,7.47-8.08,20.35,20.35,0,0,1,10.77-2.86,20.63,20.63,0,0,1,10.83,2.83,19.73,19.73,0,0,1,7.44,8,26.72,26.72,0,0,1,2.71,12.45,26.39,26.39,0,0,1-2.74,12.37,20.17,20.17,0,0,1-7.44,8.11A20.4,20.4,0,0,1,1316.49,248.42Zm0-6.77a12.16,12.16,0,0,0,7.08-2.07,13.45,13.45,0,0,0,4.64-5.79,23.89,23.89,0,0,0,0-17.45,13.33,13.33,0,0,0-4.64-5.77,13.2,13.2,0,0,0-14.1,0,13.53,13.53,0,0,0-4.67,5.77,23.5,23.5,0,0,0,0,17.45,13.65,13.65,0,0,0,4.67,5.79A12.05,12.05,0,0,0,1316.49,241.65Zm-7-43.36a4.14,4.14,0,0,1-3-1.26,4.18,4.18,0,0,1,0-6,4.14,4.14,0,0,1,3-1.26,4.25,4.25,0,0,1,0,8.5Zm14,0a4.25,4.25,0,0,1,0-8.5,4.29,4.29,0,0,1,4.3,4.25,4.09,4.09,0,0,1-1.25,3A4.16,4.16,0,0,1,1323.49,198.29Z"/><path class="a" d="M1355.49,247.75h-7.55V202.43h28.87v6.72h-21.32v12.42h19.86v6.71h-19.86Z"/><path class="a" d="M1393.14,247.75h-7.55V202.43h28.87v6.72h-21.32v12.42H1413v6.71h-19.87Z"/><path class="a" d="M1452.67,247.75h-29.43V202.43h29.43v6.72H1430.8V221h20.48v6.61H1430.8V241h21.87Z"/><path class="a" d="M1501.13,247.75h-8.23l-22.49-33.62h-.22v33.62h-7V202.43h7.94l22.77,34h.23v-34h7.05Z"/><path class="a" d="M1531.28,247.75h-7.49v-38.6h-14.22v-6.72h35.92v6.72h-14.21Z"/><path class="a" d="M1553.94,247.75V202.43h7.56V241h21.59v6.71Z"/><path class="a" d="M1591.93,247.75V202.43h7.56v45.32Z"/><path class="a" d="M1630.93,248.54A20.28,20.28,0,0,1,1620,245.6a19.9,19.9,0,0,1-7.36-8.23,29.77,29.77,0,0,1,0-24.47,19.94,19.94,0,0,1,7.36-8.2,21.78,21.78,0,0,1,19.78-1.06,17,17,0,0,1,6.43,5.28,17.63,17.63,0,0,1,3.19,8.06h-7.89a9.2,9.2,0,0,0-3.44-6.1,11.08,11.08,0,0,0-7.13-2.29,12.15,12.15,0,0,0-7,2.07,13.26,13.26,0,0,0-4.64,5.76,24.11,24.11,0,0,0,0,17.43,13.24,13.24,0,0,0,4.64,5.79,12.15,12.15,0,0,0,7,2.07,11,11,0,0,0,7.13-2.32,9.27,9.27,0,0,0,3.44-6.07h7.89a17.74,17.74,0,0,1-3.19,8,16.89,16.89,0,0,1-6.43,5.31A20.22,20.22,0,0,1,1630.93,248.54Z"/><path class="a" d="M1658.23,247.75V202.43h7.56V220.9h21.48V202.43h7.55v45.32h-7.55V227.61h-21.48v20.14Z"/><path class="a" d="M1737.06,247.75h-29.42V202.43h29.42v6.72h-21.87V221h20.48v6.61h-20.48V241h21.87Z"/><path class="a" d="M1185.46,314.75l-16.79-45.32h8.4l13,36.82h.23l12.92-36.82h8.11l-16.78,45.32Z"/><path class="a" d="M1248.57,314.75h-29.43V269.43h29.43v6.72h-21.88V288h20.48v6.61h-20.48V308h21.88Z"/><path class="a" d="M1259,314.75V269.43h20.09a17.58,17.58,0,0,1,7.38,1.46,11.41,11.41,0,0,1,5,4.22,12,12,0,0,1,1.79,6.69,11.71,11.71,0,0,1-1.39,5.73,9.27,9.27,0,0,1-4.54,4v.22a5.9,5.9,0,0,1,4.42,1.54,6.09,6.09,0,0,1,1.51,4.45v17.06h-7.49v-18h-19.19v18Zm7.56-24.56h11.91a7.53,7.53,0,0,0,5.32-1.85,7.77,7.77,0,0,0,0-10.43,7.65,7.65,0,0,0-5.32-1.82h-11.91Z"/><path class="a" d="M1311.51,314.75l-11.58-45.32h8l7.72,33.8h.22l9-33.8h7.27l9.46,33.8h.22l7.67-33.8h7.94l-11.58,45.32H1338l-9.51-34.46h-.22l-9,34.46Z"/><path class="a" d="M1356.05,314.75l17.51-45.32h8.06l17.29,45.32H1391l-4.48-12.42h-18.18l-4.64,12.42Zm14.72-19h13.54l-6.55-18.13h-.22Z"/><path class="a" d="M1406.35,314.75V269.43h7.55V308h21.6v6.71Z"/><path class="a" d="M1453.18,314.75h-7.5v-38.6h-14.21v-6.72h35.92v6.72h-14.21Z"/><path class="a" d="M1493.13,315.42a21.13,21.13,0,0,1-9.37-1.95,14.25,14.25,0,0,1-6.21-5.79,18.56,18.56,0,0,1-2.21-9.43V269.43H1483v28q0,5.1,2.63,8t7.78,2.85c3.47,0,6-1,7.75-3a11.6,11.6,0,0,0,2.54-7.72V269.43h7.56v28.93a18.17,18.17,0,0,1-2.19,9.15,14.46,14.46,0,0,1-6.24,5.87A21.37,21.37,0,0,1,1493.13,315.42Z"/><path class="a" d="M1561.55,314.75h-8.22l-22.49-33.62h-.23v33.62h-7V269.43h8l22.77,34h.22v-34h7Z"/><path class="a" d="M1592.21,315.42a18.68,18.68,0,0,1-10.43-3,20.27,20.27,0,0,1-7.16-8.25,27.06,27.06,0,0,1-2.6-12.12,26.19,26.19,0,0,1,2.71-12.19,20.32,20.32,0,0,1,7.5-8.2,22,22,0,0,1,19.89-1.06,17,17,0,0,1,6.43,5.28,17.63,17.63,0,0,1,3.19,8.06h-7.89a9.25,9.25,0,0,0-3.41-6.1,11.15,11.15,0,0,0-7.22-2.29,12.38,12.38,0,0,0-7.13,2.07,13.69,13.69,0,0,0-4.76,5.79,23,23,0,0,0,0,17.46,14.58,14.58,0,0,0,4.78,5.93,12,12,0,0,0,7.08,2.15,13.11,13.11,0,0,0,5.71-1.2,9.87,9.87,0,0,0,4-3.3,8,8,0,0,0,1.45-4.68v-2.35h-11.91v-6.15h13.31a6,6,0,0,1,4.48,1.54,6.09,6.09,0,0,1,1.51,4.45v17.45h-7v-6h-.23a10.74,10.74,0,0,1-4.61,4.84A15.44,15.44,0,0,1,1592.21,315.42Z"/><path class="b" d="M1083.71,313.15h-221a24.11,24.11,0,0,1-24.1-24.1V87.85a24.11,24.11,0,0,1,24.1-24.1h221a24.11,24.11,0,0,1,24.1,24.1V289A24.13,24.13,0,0,1,1083.71,313.15Z"/><path class="c" d="M198.61,323a134.2,134.2,0,1,0-134.2-134.2A134.2,134.2,0,0,0,198.61,323Z"/><path class="a" d="M118.81,273.65,184,105h30l64.4,168.7H249l-16.6-46.3h-67.7l-17.3,46.3Zm54.8-70.9H224l-24.4-67.5h-.8Z"/><path class="a" d="M893.81,273.65,959,105h30l64.4,168.7H1024l-16.7-46.2h-67.7l-17.3,46.2Zm54.8-70.9H999l-24.4-67.5h-.8Z"/><path class="d" d="M669.81,322.45H498.11a134,134,0,0,1,0-267.9h171.6a134,134,0,0,1,.1,267.9Z"/><path class="a" d="M521.21,273.55V104.85h55.6q25.35,0,44.1,10.2a71.55,71.55,0,0,1,29,29.2c6.9,12.6,10.3,27.6,10.3,45,0,17.2-3.4,32.2-10.3,44.8a72.64,72.64,0,0,1-29.1,29.3c-12.5,6.9-27.2,10.3-44,10.3h-55.6Zm28.1-24.6h27.5c11.9,0,22-2.5,30.1-7.6a48.76,48.76,0,0,0,18.5-20.9c4.2-8.9,6.4-19.3,6.4-31.2,0-17.9-4.7-32.4-14.2-43.3s-23.1-16.5-40.8-16.5h-27.5Z"/></svg>